<?xml version="1.0" encoding="UTF-8" standalone="no"?>
<!-- Created with Inkscape (http://www.inkscape.org/) -->

<svg
   version="1.1"
   id="svg2"
   width="439.58667"
   height="466.66666"
   viewBox="0 0 439.58667 466.66666"
   sodipodi:docname="rhino_005.eps"
   xmlns:inkscape="http://www.inkscape.org/namespaces/inkscape"
   xmlns:sodipodi="http://sodipodi.sourceforge.net/DTD/sodipodi-0.dtd"
   xmlns="http://www.w3.org/2000/svg"
   xmlns:svg="http://www.w3.org/2000/svg">
  <defs
     id="defs6" />
  <sodipodi:namedview
     id="namedview4"
     pagecolor="#ffffff"
     bordercolor="#000000"
     borderopacity="0.25"
     inkscape:showpageshadow="2"
     inkscape:pageopacity="0.0"
     inkscape:pagecheckerboard="0"
     inkscape:deskcolor="#d1d1d1" />
  <g
     id="g8"
     inkscape:groupmode="layer"
     inkscape:label="ink_ext_XXXXXX"
     transform="matrix(1.3333333,0,0,-1.3333333,0,466.66667)">
    <g
       id="g10"
       transform="scale(0.1)">
      <path
         d="m 1068.53,663.777 c -12.83,46.067 -30.57,83.098 -51.78,112.766 -21.328,29.617 -46.555,51.77 -73.727,68.152 -27.386,16.352 -56.082,27.035 -84.023,33.801 -27.949,6.746 -55.148,9.602 -79.559,10.266 -10.855,0.293 -21.171,0.156 -30.902,-0.266 -14.031,-0.598 -26.82,-1.758 -37.562,-3.035 -21.266,-2.512 -33.551,-5.324 -33.551,-5.324 -11.649,-6.582 -20.406,-12.422 -26.789,-17.617 -6.383,-5.176 -10.574,-9.739 -13.035,-13.75 -4.922,-8.04 -3.055,-13.985 3.062,-18.399 6.121,-4.414 16.57,-7.336 28.926,-9.199 12.469,-1.863 27.086,-2.527 41.648,-2.18 14.606,0.371 28.45,1.379 38.625,2.278 10.18,0.918 16.77,1.738 16.77,1.738 -5.965,-37.254 -9.516,-71.399 -10.985,-102.688 -1.468,-31.277 -0.863,-59.636 1.571,-85.203 4.855,-51.152 16.66,-91.758 32.219,-124.226 15.566,-32.493 34.632,-57.192 54.136,-75.879 18.926,-18.274 38.297,-30.547 55.692,-38.813 34.484,-16.57 62.882,-17.383 62.882,-17.383 34.258,-1.812 59.492,14.375 77.512,39.856 17.96,25.613 27.45,60.93 31.12,97.305 3.66,36.386 2.74,73.398 1.31,101.257 -1.43,27.864 -3.56,46.543 -3.56,46.543 z M 695.977,587.402 c -4,22.793 -6.457,47.625 -7.075,72.539 -0.25,6.25 -0.371,12.422 -0.371,18.504 0,6.106 0.102,12.102 0.391,17.993 0.535,11.816 1.687,23.218 3.652,34.375 0.43,2.578 -1.222,5.093 -3.781,5.671 -0.059,0 -25.309,5.801 -52.801,18.789 -13.758,6.602 -28.008,15.059 -39.683,25.403 -11.657,10.554 -20.586,23.094 -24.153,37.508 -1.812,7.382 -2.679,14.519 -2.679,21.433 0,5.942 0.617,11.711 1.832,17.309 2.601,12.293 7.879,24.148 15.242,35.633 7.344,11.562 16.668,22.8 27.332,33.504 10.558,10.39 22.504,20.011 35.125,28.664 12.562,8.086 25.93,15.207 39.375,20.996 13.41,5.527 26.961,9.863 39.914,13.086 15.508,3.574 30.109,5.769 42.367,6.894 16.934,1.453 33.988,2.324 50.16,2.324 1.36,0 2.637,0 3.86,-0.019 1.046,0.019 1.734,0.066 2.367,0.066 7.652,0 17.929,-1.531 28.121,-2.136 2.305,-0.118 4.594,-0.184 6.887,-0.184 8.925,0.016 17.984,1.07 25.8,5.476 10.891,6.29 16.688,13.25 16.789,21.32 -0.082,7.1 -4.515,12.48 -9.691,16.63 -10.785,8.74 -27.187,14.01 -36.305,14.99 -9.8,0.95 -21.757,1.92 -35.804,2.65 -13.676,0.91 -29.375,1.66 -46.246,1.66 -1.344,0 -2.747,0.03 -4.223,-0.01 -12.402,-0.22 -25.359,-0.94 -38.574,-2.36 -13.328,-1.54 -26.875,-3.82 -40.325,-6.96 -13.468,-3.23 -26.777,-7.31 -39.726,-12.34 -12.934,-5.04 -25.613,-10.96 -37.871,-17.79 -12.293,-6.89 -24.172,-14.68 -35.473,-23.512 -11.41,-8.797 -22.195,-18.731 -32.055,-29.988 -9.878,-11.321 -18.71,-24.114 -26.05,-38.672 -4.766,-9.668 -9.594,-20.239 -14.047,-31.157 -4.457,-11.003 -8.539,-22.539 -11.778,-34.351 -3.257,-11.828 -5.656,-24.043 -6.707,-36.32 -0.386,-4.524 -0.593,-9.043 -0.593,-13.555 0,-7.805 0.593,-15.574 1.98,-23.25 2.141,-12.082 6.184,-23.781 12.602,-34.426 6.453,-10.535 15.324,-19.91 26.937,-27.527 9.551,-6.067 20.852,-12.727 33.477,-18.977 11.617,-5.73 24.324,-11.308 37.762,-16.133 v -1.172 c 0,-3.371 0.042,-8.464 0.21,-14.98 0.309,-12.41 1.071,-30.012 3.196,-50.359 2.144,-20.239 6.187,-42.168 12.953,-63.555 7.156,-20.918 16.543,-40.93 28.113,-58.852 11.86,-17.488 46.016,-49.91 67.305,-53.828 2.703,-0.398 5.176,-0.593 7.441,-0.593 3.981,0 7.43,0.632 10.356,2.011 l -2.102,4.461 2.168,-4.441 c 5.75,2.644 8.41,8.719 8.227,14.179 -0.473,19.239 -21.657,47.762 -26.813,63.29 -6.25,17.804 -12.293,38.019 -17.015,60.089 z M 3290.82,1694.06 c -4.94,42.23 -13.11,81.79 -23.98,119.58 -10.87,37.79 -24.24,74.42 -39.43,110.19 -15.18,35.74 -32.11,70.33 -50.31,103.4 -18.19,33.08 -37.96,63.08 -58.51,90.1 -20.57,27.02 -41.94,51.07 -63.48,72.26 -44.87,42.22 -92.41,72.64 -136.43,92.48 -43.54,19.51 -81.26,31.02 -108.36,37.7 -1,13.63 -2.29,26.89 -3.93,39.91 -3.32,26.57 -8.02,53.18 -13.93,79.84 -3.94,17.78 -8.43,35.5 -13.4,52.77 -4.96,16.9 -10.36,32.73 -16.12,47.59 -5.76,14.87 -11.89,28.87 -18.29,41.96 -7.62,15.24 -15.59,29.17 -23.77,42.31 -14.59,23.46 -30.43,44.95 -47.49,66.24 2.98,2.36 6.01,4.81 9.17,7.38 16.36,13.11 34.73,28.38 52.7,46.18 17.25,17.77 33.88,38.85 48.67,63.84 14.75,25.01 28.69,53.95 40.37,86.22 12.06,32.37 21.2,67.7 23.84,105.85 1.32,19.09 0.4,38.84 -2.73,59.27 -3.41,20.44 -8.52,41.55 -15.44,63.27 -6.93,21.72 -15.61,44.02 -26.38,66.9 -7.35,15.63 -15.8,31.56 -25.38,47.77 12.17,11.63 23.01,24.37 31.84,37.36 39.43,58.01 54.83,151.14 -7.2,202.03 -50.55,41.48 -130.32,23.63 -176.01,-18.6 -14.57,-13.48 -29.88,-25.84 -43.17,-36.59 -31.09,-25.14 -64.31,-40.06 -100.21,-57.01 -62.87,-29.69 -133.04,-65.16 -187.36,-109.23 -16.12,-13.08 -30.45,-26.61 -43.16,-40.43 -12.73,-13.83 -23.88,-27.95 -33.67,-42.22 -19.58,-28.53 -33.66,-57.75 -43.37,-86.89 -3.92,-11.76 -6.88,-23.51 -9.32,-35.24 -0.33,0.36 -0.61,0.73 -0.94,1.1 -6.23,6.96 -12.51,13.57 -18.76,19.78 -6.27,6.22 -12.5,12.03 -18.65,17.41 -12.25,10.67 -23.75,19.25 -33.61,25.23 -9.07,5.43 -16.87,8.5 -23.24,9.19 -6.21,0.58 -11.38,-0.97 -15.33,-4.7 -3.97,-3.72 -6.4,-9.23 -7.17,-16.17 -0.66,-7.02 0.77,-15.76 4.75,-26.11 4,-10.38 11.06,-22.73 20.26,-36.02 1.74,-2.5 3.59,-5.03 5.45,-7.57 -4.09,-0.34 -8.1,-0.66 -12.32,-1.06 -19.1,-1.81 -39.6,-4.3 -60.95,-7.46 -1.39,1.62 -2.67,3.23 -4.13,4.84 -6.21,6.97 -12.49,13.58 -18.75,19.79 -6.26,6.21 -12.51,12.03 -18.64,17.4 -12.25,10.68 -23.75,19.26 -33.62,25.24 -9.07,5.42 -16.87,8.49 -23.23,9.19 -6.22,0.57 -11.38,-0.98 -15.32,-4.71 -3.97,-3.72 -6.41,-9.23 -7.18,-16.17 -0.65,-7.02 0.78,-15.76 4.75,-26.11 3.98,-10.38 11.05,-22.73 20.26,-36.01 2.27,-3.27 4.64,-6.59 7.13,-9.92 -18.75,-4.17 -37.83,-8.83 -57.11,-14.05 -3.26,-0.89 -6.54,-1.86 -9.81,-2.78 -0.15,0.15 -0.29,0.3 -0.43,0.45 -6.27,6.22 -12.51,12.03 -18.64,17.4 -12.25,10.69 -23.75,19.26 -33.63,25.24 -9.07,5.43 -16.86,8.5 -23.24,9.19 -6.2,0.57 -11.37,-0.97 -15.32,-4.71 -3.96,-3.71 -6.4,-9.22 -7.17,-16.17 -0.64,-7.02 0.77,-15.75 4.75,-26.1 3.36,-8.74 8.99,-18.91 16.15,-29.82 -8.73,-3.14 -17.45,-6.38 -26.15,-9.81 -20.59,-8.12 -41.04,-17.09 -61.13,-27.1 -20.12,-10.02 -39.94,-21.1 -60.02,-33.24 -20.09,-12.15 -40.85,-25.43 -61.14,-40.27 -20.29,-14.82 -39.84,-31.09 -58.11,-48.8 -18.29,-17.73 -35.05,-36.94 -49.5,-57.86 -14.85,-20.72 -27.09,-43.25 -36.62,-67.57 -9.79,-24.23 -17.2,-50.12 -22.8,-77.57 -5.6,-27.45 -10.01,-56.29 -13.78,-86.54 -3.07,-24.66 -6.13,-50.37 -8.62,-77.36 -5.53,-1.21 -10.97,-2.29 -16.27,-3.14 -11.7,-1.9 -22.84,-2.86 -33.4,-3.01 -10.58,-0.02 -20.62,0.78 -30.23,2.53 -9.57,1.75 -18.57,4.11 -27.09,7.06 -8.46,2.92 -16.56,6.48 -24.28,10.51 -15.73,8.61 -30.04,19.02 -43.14,30.55 -13.05,12.04 -24.79,24.79 -35.65,38 -11.04,13.76 -21.06,28.09 -31,43.38 -8.03,12.54 -16.92,31.75 -27.63,53.52 -5.35,10.85 -11.21,22.19 -17.25,33.02 -6.04,10.82 -12.13,20.95 -18.39,30 -12.31,16.95 -25.02,30.13 -38.76,35.84 -13.74,5.73 -28.65,4.12 -45.586,-8.48 -15.211,-11.54 -28.461,-24.49 -40.004,-38.59 -11.57,-14.12 -21.688,-29.43 -30.785,-45.7 -9.086,-16.27 -17.547,-33.58 -25.528,-51.64 -8.89,-18.22 -17.089,-37.15 -24.375,-56.56 -7.285,-19.4 -13.496,-39.22 -18.554,-59.12 -5.067,-19.91 -8.832,-39.83 -11.321,-59.52 -2.5,-19.7 -3.73,-39.13 -3.98,-58.1 -0.047,-3.92 0.055,-7.75 0.062,-11.64 -4.664,13.05 -9.277,26.03 -13.812,38.83 -8.274,21.86 -16.098,43.46 -23.418,64.85 -21.977,64.16 -39.453,126.27 -53.281,185.72 -34.461,148.19 -47.325,299.29 -40.871,451.21 4.171,98.22 87.097,301.3 -88.821,273 -20.781,-3.34 -41.578,-9.79 -62.265,-18.67 -20.703,-8.89 -41.254,-20.25 -60.657,-34.02 -19.398,-13.75 -37.543,-29.96 -54.73,-47.68 -17.18,-17.71 -33.887,-36.63 -50.535,-55.72 -16.653,-19.1 -33.528,-38.17 -50.348,-56.66 -16.832,-18.49 -33.215,-36.66 -48.223,-54.37 -17.433,-20.57 -33.449,-41.41 -47.472,-62.98 -14.028,-21.56 -26.063,-43.81 -37.309,-66.01 -22.484,-44.39 -42.437,-88.23 -60.676,-131.08 -18.234,-42.86 -35.125,-84.52 -49.7691,-125.45 C 70.5703,2636.41 55.1563,2584.14 42.5586,2532.98 30.1328,2481.82 20.8203,2431.66 14.1211,2382.48 7.42578,2333.33 3.28516,2285.12 1.38672,2237.98 c -1.906251,-47.19 -1.859376,-93.18 0.21875,-137.83 2.08594,-44.63 6.76953,-87.9 13.79293,-129.74 7.0313,-41.83 16.5821,-82.23 28.1641,-121.13 11.6875,-38.89 24.8789,-76.3 39.2695,-112.02 14.3985,-35.73 30.039,-69.69 46.406,-101.9 32.727,-64.43 68.121,-122.54 103.434,-174.79 19.84,-29.33 39.465,-56.55 58.269,-81.51 -4.75,-4.68 -9.632,-9.78 -14.457,-15.03 -19.921,-21.67 -38.636,-45.57 -42.046,-50.19 -10.094,-13.68 -18.516,-28.14 -25.317,-43.11 -6.801,-14.96 -11.992,-30.45 -15.613,-46.18 -3.629,-15.71 -5.664,-31.71 -6.125,-47.75 -0.457,-16.04 0.652,-32.13 3.32,-48.01 2.524,-15.16 6.973,-30.88 13.305,-46.1 6.34,-15.24 14.562,-29.96 24.652,-43.25 10.141,-13.31 22.184,-25.21 35.965,-34.58 13.777,-9.38 29.289,-16.247 46.383,-19.38 11.156,-1.886 22.246,-3.125 33.265,-3.8 -5.304,-17.395 -13.277,-45.657 -21.21,-81.922 -6.829,-31.203 -14.309,-68.32 -19.938,-109.543 -5.637,-41.223 -8.547,-86.563 -7.09,-134.192 1.445,-47.625 6.754,-97.46 16.953,-147.429 10.196,-49.973 24.828,-99.981 45.645,-147.989 20.754,-47.792 49.414,-92.761 91.933,-132.351 21.258,-19.797 46.739,-38.43 75.723,-55.899 14.574,-8.742 30.012,-17.167 46.215,-25.441 16.203,-8.281 33.164,-16.406 50.797,-24.309 17.613,-7.898 35.5,-15.671 53.711,-23.1636 18.211,-7.4883 36.758,-14.6562 55.703,-21.4805 27.508,-10.3554 55.84,-20 85.098,-28.9375 C 846.676,39.8242 876.734,31.3789 908.52,24.2852 940.281,17.207 974.395,11.8477 1010.95,7.80469 1048.13,3.83984 1087.66,1.17188 1129.98,0 c 0,0 7.02,55.7813 27.5,147.961 5.13,23.047 11.22,48.387 18.33,75.723 7.31,27.273 16.02,56.445 26.33,87.195 10.31,30.754 21.91,63.152 34.4,96.992 12.49,33.828 25.59,69.192 39.34,105.93 6.89,18.433 14.05,37.273 21.39,56.277 7.91,-9.492 17.64,-20.183 29.16,-30.984 17.26,-16.172 38.39,-32.461 63.02,-45.024 24.64,-12.547 52.77,-21.355 84.03,-22.605 31.27,-1.231 65.66,5.098 102.8,22.844 18.57,8.867 37.83,20.593 57.72,35.652 19.9,15.059 40.43,33.469 61.54,55.691 23.03,24.25 46.77,53.047 71.16,87.051 13.35,18.535 26.91,38.598 40.66,60.258 13.75,21.668 27.64,44.977 41.64,70.035 0,0 29.46,-10.879 80.39,-24.402 25.49,-6.758 56.29,-14.004 90.74,-21.199 34.43,-7.18 72.21,-14.582 111.76,-21.477 39.52,-6.875 80.83,-13.191 123.33,-17.539 37.26,-3.816 76.01,-5.723 115.6,-4.973 39.77,0.852 79.81,3.938 119.3,9.922 29.64,4.485 58.94,10.61 87.63,18.625 28.68,8.027 56.77,17.942 83.97,30.039 27.21,12.102 53.62,26.387 78.83,43.106 25.23,16.726 49.14,35.91 71.25,57.812 11.72,11.594 22.87,24.004 33.46,37.18 18.06,1.531 35.45,3.953 52.08,7.359 35.37,7.258 67.57,18.559 96.88,33.117 58.66,29.114 106.14,71.214 144.88,119.834 19.37,24.31 36.58,50.19 51.82,76.94 15.22,26.76 28.48,54.39 39.99,82.16 11.48,27.77 21.2,55.7 29.38,82.92 8.18,27.22 14.83,53.75 20.17,78.67 18.3,95.77 15.88,163.99 15.88,163.99 1.66,50.08 -0.5,96.06 -5.52,138.98 z m -2341.761,576.8 c 0.101,9.3 0.175,18.09 0.234,26.4 -0.074,8.08 -0.074,15.8 -0.008,23.12 0.078,10.19 0.406,19.9 0.992,29.32 0.586,9.23 1.489,18.27 2.649,27.33 0.691,6.2 1.453,12.54 2.25,19.09 0.269,2.33 0.957,8.54 1.922,17.65 1.199,9.76 3.023,23.28 5.828,39.66 1.472,8.43 3.367,17.77 5.558,27.51 2.286,9.87 4.864,19.95 7.746,29.94 2.93,9.87 6.192,19.59 9.653,28.81 3.441,8.83 6.898,16.95 10.234,24 3.031,6.24 5.703,11.42 7.993,15.62 2.26,4.15 4.36,7.55 6.35,10.18 3.91,5.15 7.58,7.48 10.69,5.53 7.45,-4.09 7.07,-15.06 8.93,-20.39 1.56,-4.36 3.53,-8.79 5.76,-13.36 2.19,-4.81 4.56,-9.85 7.02,-14.95 2.35,-5.27 4.71,-10.54 7.16,-15.78 2.44,-5.24 5,-10.44 7.61,-15.57 2.54,-5.11 5.16,-10.16 7.87,-15.18 2.69,-5.01 5.46,-9.98 8.28,-14.91 5.15,-9.03 10.72,-17.71 16.76,-26.11 6.1,-8.42 12.71,-16.56 19.6,-24.36 6.89,-7.8 14.07,-15.23 21.49,-22.25 7.42,-7.02 15.08,-13.6 22.93,-19.69 15.69,-12.19 31.69,-22.72 47.57,-31.65 15.87,-8.94 31.63,-16.31 46.88,-22.39 15.03,-5.24 29.84,-9.14 44.12,-11.9 14.28,-2.5 28,-4.03 40.82,-4.82 11.31,-0.23 21.87,-0.1 31.54,0.22 -14.48,-109.47 -39.85,-243.89 -143.5,-303.26 -10.47,3.84 -21.44,7.25 -32.98,10.18 -7.92,1.65 -15.81,2.4 -23.79,2.4 -13.58,0 -27.37,-2.2 -40.87,-6.31 -19.31,-5.86 -37.32,-15.29 -53.63,-25.95 -7.39,-4.56 -14.73,-9.59 -21.63,-14.94 -1.48,-1.15 -2.84,-2.39 -4.28,-3.58 -0.92,1.68 -1.77,3.43 -2.7,5.1 -9.76,17.54 -20.15,34.47 -31.06,51.16 -11.359,17.16 -21.499,34.31 -30.37,51.71 -8.879,17.4 -16.555,35.2 -22.692,53.05 -5.199,23.97 -8.039,46.97 -9.16,68.79 -0.269,10.76 -0.328,21.21 -0.238,31.33 0.086,10.11 0.281,19.9 0.469,29.25 z M 263.555,1675.28 c -12.344,26.49 -23.356,54.13 -32.637,83.58 -9.293,29.46 -17.027,61.12 -23.922,94.64 -6.957,34.18 -13.375,70.08 -18.922,107.37 -5.39,37.92 -9.261,77.19 -10.73,117.82 -1.461,40.63 -0.856,82.1 1.179,123.81 2.04,41.68 5.575,83.65 10.477,125.76 4.891,42.07 10.586,83.99 17.227,125.94 4.183,20.9 9.074,41.91 14.695,62.99 5.621,21.08 11.953,42.24 18.988,63.45 10.789,32.51 22.727,64.97 34.469,96.91 9.621,30.42 19.992,59.86 31.605,89.34 5.727,14.89 12.207,30.24 19.661,45.47 7.953,15.73 17.093,31.53 27.382,48.22 9.629,15.63 20.778,33.31 33.414,53.64 14.204,22.81 30.614,48.62 49.164,75.72 20.223,28.67 41.489,56.23 62.106,81.42 18.027,22.39 34.008,42.85 47.84,60.12 12.902,17.37 24.679,32.02 35.164,43.45 10.465,11.42 19.965,19.53 28.308,22.51 17.637,6.29 24.43,-2.64 22.969,-22.43 -1.5,-19.67 -9.781,-49.55 -18.773,-85.06 -3.567,-18.13 -6.422,-37.93 -8.551,-58.4 -2.133,-20.46 -3.898,-41.51 -4.816,-61.36 -2.071,-40.51 -2.688,-74.92 -0.247,-100.21 5.75,-36.49 12.325,-70.77 17.52,-104.52 2.586,-34.25 3.52,-69.95 6.477,-106.77 2.738,-36.51 9.968,-72.72 20.546,-110.14 11.286,-37.26 24.071,-75.97 38.758,-116.82 7.875,-22.51 16.192,-45.75 24.871,-69.69 8.707,-24.06 17.727,-48.99 26.379,-74.47 7.848,-25.87 15.52,-52.16 23.086,-78.59 6.953,-25.75 14.168,-51.09 22.309,-76.12 9.461,-23.96 19.953,-47.46 31.648,-70.48 13.016,-22.7 27.356,-44.19 42.946,-64.49 12.128,-14.61 24.906,-30.05 38.144,-46.32 13.242,-16.26 26.578,-33.53 39.586,-51.75 11.816,-19.37 24.137,-39.9 36.371,-61.81 5.895,-10.96 11.91,-22.09 18.184,-33.76 3.175,-5.89 6.597,-12.19 10.328,-18.85 3.732,-6.66 7.812,-13.67 12.232,-20.95 5.31,-6.88 10.83,-13.58 16.44,-19.9 3.81,-4.3 7.6,-8.3 11.37,-12.13 -9.5,-12.94 -19.91,-26.74 -31.32,-41.29 -20.914,-26.05 -44.281,-52.86 -69.757,-79.88 -14.453,-15.52 -29.785,-31.48 -46.305,-48.05 -26.414,-26.58 -55.996,-54.34 -88.848,-83.51 -17.953,-15.43 -36.945,-32.4 -57,-49.93 -20.136,-17.62 -41.34,-35.55 -63.644,-52.92 -22.246,-17.33 -45.531,-33.04 -69.86,-46.51 -24.308,-13.17 -49.515,-24.16 -76.066,-33.44 -4.215,-1.47 -8.609,-2.94 -12.941,-4.41 -18.493,21.07 -38.883,44.54 -60.692,70.23 -19.148,24.56 -38.351,49.78 -57.027,75.64 -18.672,25.84 -36.625,52.33 -53.395,79.1 -16.785,25.45 -32.109,51.48 -46.406,77.8 -14.301,26.35 -27.758,52.93 -39.984,80.03 z M 3132.36,1521.23 c -3.77,-37.38 -9.96,-73.74 -17.83,-108.7 -8.05,-35.11 -17.52,-69.33 -28.06,-100.94 -10.33,-29.61 -22.09,-56.1 -34.69,-79.07 -12.6,-22.96 -26.02,-42.39 -39.6,-58.08 -27.13,-31.33 -53.26,-54 -72.62,-68.69 -0.49,-0.36 -0.93,-0.67 -1.41,-1.03 3.17,13.34 6.11,26.97 8.59,41.26 7.33,39.58 12.85,83.61 16.73,132.91 0,0 2.32,39.67 -5.84,97.69 -4.52,28.35 -12.13,60.53 -24.58,93.99 -12.25,34.07 -29.35,70.19 -52.62,107.8 -23.76,38.35 -53.3,77.37 -90.12,113.71 -19.49,18.77 -81.17,78.9 -109.39,72.45 -29.49,-6.75 4.4,-45.9 17.92,-60.07 21.34,-22.34 43.73,-45.27 65.59,-71.13 21.86,-25.84 42.71,-54.35 60.95,-86.76 17.38,-32.62 32.23,-67.34 42.99,-103.67 10.88,-35.15 17.93,-72.12 19.49,-110.67 0.87,-47.67 -4.72,-96.72 -17.52,-145.51 -6.41,-24.41 -14.13,-48.67 -24.33,-72.92 -10.18,-24.2 -23.39,-48.66 -40.28,-73.12 -16.82,-24.35 -37.81,-48.715 -63.47,-72.953 -75.48,-71.332 -159.82,-92.539 -260.46,-103.137 -32.19,-3.457 -66.9,-5.762 -103.12,-6.223 -35.89,-0.457 -74,0.813 -112.82,5.278 -38.63,4.175 -77.43,11.328 -115.13,22.722 0,0 -18.94,3.203 -48.82,8.086 -29.89,4.988 -70.53,12.344 -114.89,20.215 -22.18,3.937 -45.54,7.805 -69.11,11.172 -23.58,3.371 -47.25,6.172 -69.98,7.937 -45.31,3.188 -86.35,2.668 -115.78,-3.98 0,0 -5.33,-16.391 -15.49,-41.777 -10.18,-25.403 -25.75,-59.551 -45.87,-95.2 -13.27,-23.765 -28.33,-48.465 -44.47,-72.195 -16.14,-23.723 -33.48,-46.309 -51.57,-65.598 -18.3,-19.136 -37.52,-34.859 -57.51,-44.961 -30.34,-14.793 -62.36,-17.007 -94.92,0.508 -16.36,8.75 -33.03,22.668 -49.9,42.617 -8.69,10.278 -17.44,22.2 -26.17,35.727 8.43,18.687 17.21,37.422 26.72,56.187 13.34,26.313 27.3,52.754 41.76,79.258 10.95,20.317 22.3,40.715 33.86,61.157 15.22,9.343 32.23,18.906 51.37,28.347 27.82,13.567 60.13,26.961 97.29,38.965 37.39,11.992 79.29,22.383 125.99,29.988 46.57,7.239 97.81,11.606 154.14,12.18 56.31,0.586 117.72,-2.09 184.62,-8.887 35.96,-3.593 73.51,-8.508 112.73,-14.883 0,0 17.61,-3 46.96,-4.812 14.68,-0.91 32.33,-1.203 52.12,-0.512 20.02,0.715 42.35,2.414 65.91,5.5 30.98,4.055 64.05,9.934 96.95,18.367 22.02,4.747 43.92,10.327 65.19,17.117 21.14,6.78 42.02,14.77 62.36,24.37 17.06,7.06 33.75,15.35 49.83,25.08 16.15,9.72 31.45,20.91 45.62,33.74 14.16,12.99 26.99,27.76 37.93,44.5 10.43,16.74 18.89,35.45 25.14,56.28 6.08,20.91 10.15,43.95 12.03,69.16 2.09,25.21 2.52,52.58 1.47,82.25 -0.47,27.32 -8.74,55.34 -20.36,82.13 -11.72,26.86 -26.84,51.93 -40.72,72.79 -16.91,25.41 -35.7,47.94 -56.21,67.67 -20.51,19.75 -42.79,37.22 -66.9,52.57 -24.11,15.34 -50.09,28.94 -78.03,40.82 -27.93,12.63 -57.97,23.1 -90.18,30.39 -23.51,5.32 -48.32,8.63 -73.88,9.57 -25.53,0.95 -51.76,-0.94 -77.92,-4.71 -26.06,-3.77 -51.91,-9.46 -76.99,-15.96 -25.08,-7.22 -49.54,-15.03 -72.98,-22.66 -22.03,-7.07 -45.3,-14.05 -67.89,-22.25 -22.6,-7.72 -44.52,-17.28 -63.88,-30.46 -30.6,-20.37 -60.73,-42.23 -90.82,-64.08 -30.09,-21.86 -59.9,-43.39 -90.2,-63.36 -48.85,-32.23 -91.6,-68.98 -130.99,-109.17 -19.7,-20.11 -38.56,-41.08 -56.92,-62.79 -18.37,-21.7 -36.25,-44.13 -53.85,-67.16 -17.43,-23.23 -34.57,-46.51 -51.1,-69.92 -16.54,-23.42 -32.47,-46.96 -47.59,-70.59 -15.14,-23.65 -29.64,-47.37 -43.71,-71.31 -14.25,-23.919 -28.2,-48.048 -42.14,-72.513 -18.6,-32.644 -37.35,-66.121 -55.75,-100.691 -19.18,-35.383 -37.39,-72.234 -54.15,-110.449 -16.74,-38.203 -32.1,-77.461 -46.63,-116.992 -14.4,-39.551 -28.57,-79.036 -43.46,-118.243 -14.9,-39.211 -29.95,-78.105 -44.74,-116.789 -11.84,-30.933 -23.21,-61.863 -33.84,-92.73 -11.84,-37.121 -21.69,-74.172 -29.7,-110.871 0,0 -10.91,0.144 -29.81,1.711 -18.9,1.57 -45.806,4.57 -77.806,10.281 -16.004,2.844 -33.317,6.199 -51.621,10.176 -18.301,3.972 -37.606,8.633 -57.586,14.277 -20.246,5.613 -41.27,12.313 -62.727,20.43 -21.453,8.117 -43.34,17.722 -65.301,28.781 -14.605,7.437 -29.152,15.484 -43.476,24.141 -14.328,8.64 -28.434,17.839 -42.156,27.625 -13.539,9.699 -26.586,20.078 -39.082,31.218 -12.493,11.157 -24.426,23.071 -35.743,35.793 -35.058,40.762 -63.047,89.61 -81.527,148.235 -9.266,29.324 -16.316,61.062 -20.711,95.425 -4.394,34.36 -5.976,71.333 -4.609,111.067 1.449,39.746 5.097,82.273 11.133,127.805 5.078,38.296 12.148,78.855 21.503,121.531 19.063,4.902 37.872,11.032 56.282,18.542 21.07,8.39 41.765,18.35 62.16,29.58 13.164,7.06 26.305,14.1 39.32,21.23 12.985,7.12 25.586,14.63 37.672,22.67 12.078,8.03 23.734,16.62 35.094,25.67 11.351,9.05 22.562,18.34 33.594,28 9.433,7.99 32.746,26.35 47.132,44.46 14.399,18.37 18.778,36.98 -10.746,44.98 -16.004,4.34 -32.277,-4.19 -45.402,-12.57 -11.211,-7.1 -22.613,-14.82 -34.211,-22.86 -11.59,-8.01 -23.371,-16.35 -35.445,-24.68 -12.094,-8.26 -24.528,-16.37 -37.274,-24.05 -12.754,-7.69 -25.804,-15.03 -39.148,-21.84 -13.356,-6.82 -26.985,-13.16 -40.965,-18.71 -13.988,-5.58 -28.328,-10.37 -43.094,-14.07 -14.789,-3.7 -29.98,-6.3 -45.601,-7.47 -15.625,-1.18 -31.668,-0.87 -48.176,1.32 -13.117,1.97 -26.039,7.35 -37.77,15.23 -11.722,7.89 -22.265,18.33 -30.66,30.24 -16.781,23.9 -24.965,53.39 -17.387,80.31 5.633,20.04 19.84,42.76 31.219,59.86 6.981,10.47 15,20.1 23.809,29.06 17.328,-20.47 32.687,-37.56 45.281,-51.06 -11.004,-6.56 -21.496,-13.8 -30.68,-22.03 -7.445,-7.53 -10.98,-15.66 -10.957,-23.44 0.039,-14.52 11.899,-25.77 27.149,-28.51 3.554,-0.58 7.07,-0.83 10.633,-0.83 13.062,0.02 26.66,3.37 40.253,7.85 17.567,5.93 34.918,13.63 49.946,18.81 17.742,6.24 35.121,12.62 51.664,18.94 16.562,6.31 32.035,12.42 46.758,18.72 25.371,12.59 50.414,26.58 75.195,41.66 25.242,16.07 50.148,33 74.387,50.62 23.785,16.99 46.664,34.58 68.64,52.22 16.453,13.46 32.77,27.08 49.024,40.93 16.394,14.27 32.527,28.56 48.226,42.79 15.723,14.23 30.934,28.56 45.938,43.2 15.195,14.74 30.316,29.6 45.367,44.58 22.762,22.29 46.692,44.25 70.782,67.96 12.55,13.13 24.89,26.85 37.06,41.49 12.17,14.65 24.13,30.08 35.64,46.09 17.23,24 37.53,53.34 50.35,80.56 8.16,17.33 13.66,34.36 13.68,50.92 0,9.44 -1.84,18.71 -6,27.52 -6.8,11.47 -17.09,16.44 -27.35,16.29 -18.17,-0.2 -36.47,-12.86 -48.62,-25.08 l -0.83,-1.17 -6.88,-13.11 c -8.86,10.93 -17.33,22.11 -25.35,33.57 -3.9,5.67 -7.56,11.35 -11.35,17.03 5.64,7.65 10.89,14.09 12.96,16.37 13.5,16.41 32.16,29.64 54.53,35.32 7.65,2.03 15.78,3.09 24.24,3.09 16.57,0 34.36,-4.07 51.94,-13.17 17.65,-11.4 32.65,-28.86 43.7,-49.65 8.92,-19.45 14.28,-39.64 16.85,-58.26 1.16,-9.44 1.73,-18.91 1.73,-28.27 0,-7.75 -0.41,-15.45 -1.2,-23.04 -1.36,-16.26 -4.6,-32.07 -10.1,-47.7 -4.07,-11.8 -9.99,-25.08 -17.17,-39.04 -7.15,-14.49 -15.02,-28.75 -23.43,-42.72 -8.24,-14.03 -17.03,-27.31 -25.62,-39.06 -9.25,-13.03 -26.36,-24.83 -29.29,-42.47 -0.27,-2.32 -0.39,-4.38 -0.39,-6.33 0,-7.14 1.67,-12.95 5.4,-17.04 3.69,-4.06 8.94,-5.65 14.33,-5.65 6.63,0.01 13.73,2.19 21.02,5.39 4.63,2.05 9.33,4.78 13.95,7.81 1.47,0.63 2.95,1.31 4.43,2.04 21.21,10.63 45.47,32.22 53.98,43.63 8.56,11.7 18.41,25.73 28,41.26 9.59,14.88 18.85,31.04 26.56,48.11 7.94,16.77 14.86,34.88 19.6,53.78 4.03,15.72 6.41,31.91 6.41,48.24 0,3.24 -0.08,6.48 -0.26,9.69 l -4.94,-0.28 4.91,0.34 c -0.79,11.69 -2.8,23.74 -6.04,37.07 -6.6,27.03 -14.84,57.92 -29.72,87.33 -6.89,13.55 -15.63,27.03 -26.11,40.03 10.04,12.07 20.33,26.22 30.59,42.57 12.43,20.01 25.12,42.93 37.52,68.39 12.33,25.55 24.15,53.19 34.89,82.01 11,27.77 20.94,57.15 29.14,88.05 8.3,30.75 14.91,62.92 19.12,96.34 3.26,24.05 5.35,48.65 6.47,73.66 0,0 2.28,22.48 9.4,58.06 3.8,17.67 7.88,38.85 13.39,62.22 5.52,23.37 12.61,49.02 22.69,75.66 10.08,26.65 24.03,54.18 43.8,81.06 19.78,26.88 45.1,52.96 75.72,76.48 30.63,23.52 65.15,44.54 102.88,62.51 18.68,9.12 38.51,17.66 59.71,25.4 26.41,9.89 54.9,18.61 85.58,26 30.66,7.38 63.44,13.34 98.53,17.49 34.95,3.75 72.16,5.44 111.78,4.14 27.52,-0.9 56.33,-3.5 86.36,-7.58 3.57,-19.9 7.71,-39.31 12.04,-57.76 5.74,-24.47 12.54,-46.21 19.51,-63.91 5.75,-13.9 21.81,-38.04 40.37,-52.42 9.24,-6.84 19.08,-11.72 28.62,-12.45 9.54,-0.73 18.71,2.57 26.2,11.25 1.35,1.56 2.41,2.99 3.26,4.44 2.86,4.78 3.38,10.02 2.45,15.58 -0.94,5.62 -3.2,11.84 -5.85,18.6 -2.68,6.75 -5.72,14.12 -8.44,21.52 -2.78,7.25 -5.26,14.45 -6.78,20.87 -2.3,9.93 -4,20.05 -5.33,29.96 -1.33,9.91 -2.33,19.49 -2.95,28.92 -1.24,18.81 -0.89,37.39 -0.24,55.09 0.56,15.33 1.79,30.12 3.6,44.33 1.82,14.21 4.23,27.84 7.15,40.9 5.86,26.11 14.2,50.21 24.27,72.22 10.17,22.13 22.11,42.18 34.52,59.95 53.59,76.6 141.7,114.66 217.23,164.85 22.78,15.13 44.71,30.5 64.79,45.03 20.1,14.54 38.33,28.25 53.72,40.06 30.99,23.63 50.54,39.67 50.54,39.67 17.41,-26.94 18.41,-52.04 9.89,-74.53 -6.37,-16.86 -18.1,-32.25 -32.08,-45.86 -14,-13.59 -30.27,-25.41 -45.74,-35.11 -30.94,-19.39 -58.7,-30.34 -58.7,-30.34 -1.92,-20.31 25.56,-40.67 43.4,-43.96 12.55,-2.32 26.94,-1.65 40.54,0.44 6.09,-14.34 13.26,-32.87 20,-54.5 8.13,-26.04 15.67,-56.51 19.36,-89.24 2.86,-32.65 0.98,-67.47 -8.24,-102.36 -4.8,-17.45 -11.68,-34.86 -20.79,-52 -9.19,-17.09 -20.66,-33.79 -34.66,-49.88 -14.16,-15.98 -30.75,-31.43 -49.91,-46.29 -7.53,-5.84 -15.52,-11.6 -23.8,-17.32 -9.36,7.84 -17.88,14.31 -25.08,19.13 -24.35,16.3 -39.4,21.45 -39.4,21.45 20.24,12.19 36.02,26.96 48.99,41.67 13.38,13.8 23.86,28.09 32.28,41 16.98,25.56 22.5,48.11 22.5,48.11 3.79,23.18 4.82,44.57 3.67,63.6 -1.25,18.99 -3.88,34.78 -7.69,47.83 -7.64,26.1 -19.19,41.73 -32.75,50.15 -13.59,8.44 -29.18,9.64 -45,6.68 -15.84,-2.97 -32.29,-10.19 -47.66,-18.75 -30.76,-17.11 -55.27,-39.2 -55.27,-39.2 -14.09,-15.08 -26.21,-29.87 -36.27,-44.26 -10.06,-14.38 -17.99,-28.35 -23.91,-41.81 -11.73,-27.05 -17.23,-52.66 -18.93,-76.43 -0.85,-11.88 -1,-23.3 -0.69,-34.18 0.32,-10.88 1.11,-21.22 2.19,-30.94 0.66,-7.88 1.24,-15.8 2.15,-23.59 0.92,-7.78 2.17,-15.4 4.2,-22.62 2.05,-7.22 4.86,-14.08 8.84,-20.46 3.99,-6.4 9.15,-12.27 15.93,-17.45 22.15,-16.89 50.79,-21.25 75.31,-33.57 24.43,-12.27 46.5,-29.91 65.14,-49.8 12.61,-13.45 23.85,-27.58 33.97,-42.07 10.07,-14.65 19.16,-29.47 27.19,-44.07 8.05,-14.66 15.07,-29.13 21.3,-43.42 11.95,-27.34 20.14,-54.89 25.54,-81.16 4.95,-25.57 7.54,-50.05 8.74,-72.35 1.11,-21.95 0.61,-41.78 -0.44,-58.54 -0.28,-4.57 -0.63,-8.85 -0.99,-12.95 -8.93,-2.03 -17.57,-4.16 -25.79,-6.42 -37.74,-10.34 -69.02,-22.24 -95.91,-34.73 -53.73,-24.98 -87.12,-53.61 -106.91,-81.04 -11.79,-16.15 -43.48,-68.82 -16.79,-83.02 17.4,-9.24 53.5,15.32 68.13,23.89 28.46,16.68 56.61,37.89 85.16,49.18 47.47,18.79 91.77,25.22 133.57,22.49 41.8,-2.74 81.91,-15.42 118.34,-32.9 36.13,-17.95 68.02,-40.82 94.1,-63.78 51.86,-46.49 84.66,-88.85 84.66,-88.85 33.18,-50.21 60.79,-98.15 81.94,-143.43 21.18,-45.29 35.96,-87.65 45.98,-127.61 9.31,-39.6 14.46,-77.23 16.1,-113.4 1.67,-36.7 0.37,-73.28 -3.42,-110.61 z m -813.94,36.03 c 11.6,-15.33 27.83,-36.84 46.38,-61.5 15.45,-21.63 30.88,-44.31 45.81,-66.97 14.66,-22.4 30.37,-46.4 46.14,-70.49 31.53,-48.19 63.07,-96.42 86.6,-132.4 13.4,-20.48 24.07,-36.8 30.9,-47.24 -4.08,-5.52 -8.44,-10.95 -13.41,-16.18 -15.29,-16.91 -34.71,-32.21 -58.5,-45.49 -11.14,-6.79 -23.08,-13.27 -35.85,-19.37 -17.21,23.45 -41.65,56.88 -69.7,95.57 -27.36,37.74 -58.11,80.06 -88.91,121.75 -30.78,41.73 -61.62,82.79 -89.06,118.97 -35.71,47.06 -77.44,102.13 -102.34,134.98 2.43,1.04 4.85,2.17 7.28,3.18 24.44,10.13 49.09,17.32 73.85,21.33 24.77,3.51 49.71,3.86 74.9,1.49 6.41,-0.87 12.85,-1.99 19.31,-3.21 10.56,-13.57 21.54,-27.73 26.6,-34.42 z m 60.75,9.53 c 1.17,-0.48 2.38,-0.84 3.55,-1.32 27.13,-10.49 53.46,-22.06 77.92,-34.55 24.47,-12.48 47.1,-25.46 67,-41.22 19.89,-15.76 37.06,-34.99 50.93,-59.1 13.38,-23.82 23.12,-52.89 27.86,-86.9 2.71,-21.73 4.04,-45.51 1.96,-69.08 -0.28,-3.21 -0.73,-6.44 -1.16,-9.66 -25.86,34.57 -56.86,76.02 -88,117.65 -9.62,12.85 -19.22,25.67 -28.66,38.27 -9.44,12.6 -18.69,24.97 -27.64,36.91 -17.91,23.88 -34.97,46.53 -50.75,67.22 -12.22,15.52 -23.47,29.75 -33.01,41.78 z m -235.11,-126.33 c 24.36,-36.53 51.76,-77.67 79.08,-119.44 27.31,-41.75 54.48,-84.37 78.57,-122.89 42.44,-67.88 75.49,-120.79 82.77,-132.45 -19.38,-6.2 -40.24,-11.79 -63.07,-16.39 -19.32,-4.15 -40.26,-7.14 -62.8,-8.68 -9.83,-0.66 -20.05,-1 -30.57,-1.08 -4.85,7.06 -10.93,15.97 -18.19,26.7 -9.97,14.75 -21.93,32.72 -34.43,51.38 -12.52,18.66 -25.12,37.09 -37.93,55.23 -12.49,16.96 -25.59,34.42 -38.97,52.35 -13.38,17.92 -27.06,36.33 -40.61,54.72 -27.09,36.77 -53.81,73.39 -77.5,105.87 -20.62,28.2 -39.07,53.38 -53.37,72.85 16.76,12.05 33.82,23.69 51.43,34.62 23.54,15.13 47.66,29.05 71.99,42.63 7.49,4.18 15,8.2 22.51,12.14 14.92,-22.79 40.58,-61.81 71.09,-107.56 z m -149.38,-182.11 c 24.82,-42.22 49.85,-84.72 72.14,-122.7 11.13,-18.97 21.59,-36.76 30.97,-52.75 6.98,-11.92 13.38,-22.9 19.1,-32.74 -23.56,3.86 -47.14,8.18 -71.42,12.37 -23.77,4.11 -48.2,8.08 -73.85,11.46 -8.08,1.06 -16.34,2.05 -24.67,2.99 -1.52,1.97 -3.08,4 -4.74,6.16 -8.03,10.52 -17.09,22.5 -26.32,34.87 -9.21,12.35 -18.59,25.17 -28.06,38.18 -15.94,21.32 -31.88,42.1 -46.08,61.63 -14.08,18.94 -27.35,38.2 -39.41,55.25 -13.29,18.75 -25,34.77 -32.89,45.41 4.78,4.86 9.38,9.81 14.22,14.63 20.38,20.34 41.44,40.45 63.51,60.82 14.36,13.25 29.53,25.93 45.05,38.33 9.42,-15.93 19.85,-33.61 30.98,-52.47 21.99,-37.24 46.63,-79.22 71.47,-121.44 z m -222.66,-26.41 c 6.86,-12.08 13.91,-24.52 20.95,-36.93 7.05,-12.39 14.1,-24.78 20.96,-36.86 6.85,-12.06 13.51,-23.83 19.83,-35.08 8.13,-14.52 15.63,-27.88 22.29,-39.67 -18.41,0.48 -37.49,0.52 -57.53,-0.15 -27.39,-0.91 -56.56,-3.16 -87.55,-6.9 -7.53,12 -16.16,25.84 -24.74,39.7 -11.69,18.88 -23.28,37.77 -31.93,51.93 -3.07,5.02 -5.74,9.4 -7.96,13.02 16.12,19.75 32.54,39.39 49.63,58.8 14.36,16.34 29.11,32.5 44.19,48.52 3.81,-6.76 7.86,-13.91 12.1,-21.41 6.26,-11.07 12.92,-22.84 19.76,-34.97 z m -114.46,-163.35 c -28.03,-4.74 -57.43,-10.67 -88.43,-18.07 -7.94,-1.93 -16.03,-4.06 -24.11,-6.16 4.46,6.69 8.82,13.42 13.39,20.09 17.96,26.06 36.88,51.93 56.72,77.54 7.04,-12.02 14.59,-24.78 22.07,-37.6 7.06,-12.09 13.95,-24.23 20.36,-35.8 z m 556.48,1295.7 c -10.28,9.69 -22.95,18.6 -37.04,26.53 -15.07,7.57 -30.42,14.14 -47.34,18.07 -14.32,3.35 -30.43,5.03 -48.45,5.03 -3.66,0 -7.39,-0.07 -11.21,-0.21 -11.33,-0.23 -23.38,-0.84 -36.07,-2.02 -12.56,-1.18 -25.54,-3.1 -38.85,-6.2 -13.14,-3.32 -26.39,-8.42 -39.86,-15.86 -13.06,-7.6 -26.22,-16.96 -39.82,-27.99 l 3.12,-3.84 -3.23,3.75 c -0.15,-0.13 -15.2,-13.11 -40.12,-40.54 -12.6,-13.75 -28.31,-31.51 -45.77,-53.24 -17.45,-21.76 -35.65,-46.87 -52.7,-75.14 -8.59,-14.16 -16.7,-29.29 -24.43,-45.42 -7.74,-16.1 -15.18,-33.19 -22.62,-51.28 -7.42,-18.04 -15.21,-37.08 -23.19,-57.11 -8.23,-19.91 -16.28,-40.71 -24.01,-62.37 -0.07,-0.14 -5.27,-11.71 -14.74,-27.58 -9.66,-16.17 -23.71,-36.84 -40.9,-54.58 -8.59,-8.88 -17.89,-16.93 -27.74,-23.24 -9.87,-6.32 -20.3,-10.93 -31.19,-12.98 -4.67,-1 -9.3,-1.52 -13.99,-1.54 -6.84,0.02 -13.81,1.11 -20.97,3.57 -12.07,4.16 -24.78,12.24 -37.85,25.56 0.06,-0.06 -3.27,3.41 -7.82,11.28 -4.53,7.86 -10.05,19.87 -13.81,36.25 -3.4,13.62 -5.78,29.88 -5.78,48.62 0,3.67 0.07,7.42 0.28,11.24 0.53,11.76 1.98,24.62 4.58,38.91 2.55,14.49 6.23,30.38 11.43,47.8 6.16,19.92 15.16,41.42 26.55,63.9 4.57,8.75 9.11,17.41 13.94,26.25 4.72,8.91 9.92,18.17 16.27,28.39 3.12,5 6.75,10.42 10.93,16.13 4.15,5.59 8.95,11.53 14.57,17.79 7.74,8.44 15.34,16.62 21.8,23.99 6.31,7.01 11.69,13.23 16.51,18.77 4.8,5.5 9.48,10.72 14.31,15.94 5.16,5.37 10.78,10.96 17.36,17.15 7.02,6.39 15.67,13.86 26.35,22.61 12.38,10.03 26.94,21.72 43.3,34.71 1.1,0.88 1.78,2.18 1.87,3.59 0.07,1.41 -0.46,2.79 -1.47,3.77 -0.84,0.92 -5.66,4.73 -16.55,4.7 -5.4,0 -12.35,-0.88 -21.19,-3.39 -12.43,-3.61 -28.21,-10.3 -47.65,-21.42 -9.65,-5.51 -19.74,-11.54 -30.45,-18.21 -10.69,-6.92 -21.7,-14.73 -33.21,-23.83 -0.55,-0.5 -6.81,-7.28 -17.15,-18.46 -5.04,-5.44 -11.46,-12.09 -18.87,-19.88 -7.36,-7.75 -15.13,-16.57 -22.62,-26.07 -7.36,-9.49 -14.33,-19.54 -20.99,-30.22 -3.46,-5.52 -6.91,-11.23 -10.48,-17.1 -9.51,-15.89 -19.46,-33.45 -29.35,-52.39 -6.05,-11.62 -11.79,-23.85 -16.93,-36.71 -4.98,-13 -9.48,-26.38 -13.63,-39.85 -8.64,-25.76 -16.43,-51.72 -21.53,-77.2 -4.31,-20.97 -6.69,-41.95 -6.69,-62.45 0,-4.61 0.1,-9.2 0.36,-13.79 1.1,-18.93 4.37,-37.65 10.06,-55.95 5.36,-18.78 13.46,-37.04 24.54,-54.17 11.22,-17.34 25.51,-33.06 44.11,-46.28 15.49,-10.95 34.74,-16.58 51.98,-20.18 11.89,-2.46 23.78,-5.42 36.02,-7.43 8.52,-1.4 17.21,-2.35 26.14,-2.35 3.86,0 7.78,0.17 11.73,0.57 15.24,1.54 32.54,6.03 50.45,15.64 9.47,5.43 19.12,12.39 28.82,21.28 4.62,-7.13 10.02,-14.87 16.23,-22.93 11.61,-14.88 26.32,-30.32 44.33,-43.81 8.91,-6.83 18.7,-13.36 29.52,-19.18 10.93,-5.92 22.8,-11.09 35.3,-15.25 12.48,-4.22 25.66,-7.4 39.45,-9.14 7.36,-0.89 14.87,-1.37 22.56,-1.37 6.81,0 13.73,0.39 20.8,1.1 15.25,1.8 30.85,5.24 47.12,10.77 16.46,5.44 33.67,12.86 51.66,22.08 11.67,5.89 23.61,12.21 35.76,19.15 11.96,6.48 24.36,13.82 37.47,22.71 13.36,9.8 28.17,22.34 44.69,38.49 9.14,8.46 18.41,17.86 27.38,27.95 26.65,29.97 54.3,59.9 72.52,97.21 6.48,13.42 13.93,30.47 13.98,47.67 0,4.52 -0.54,9.09 -1.79,13.52 -3.21,12.35 -11.88,19.32 -21.32,19.1 -11.48,-0.18 -22.45,-8.04 -30.63,-18.39 -0.34,-0.51 -17.34,-28.38 -44.74,-66.08 -7.1,-9.48 -15.07,-19.59 -23.7,-29.89 -8.65,-10.27 -17.91,-20.77 -27.65,-31.03 -9.75,-10.25 -19.42,-20.2 -29.14,-29.54 -9.85,-9.2 -20.08,-17.72 -30.85,-25.18 -10.96,-7.6 -22.41,-14.57 -34.4,-20.73 -12.03,-6.18 -24.49,-11.54 -37.07,-15.78 -12.91,-4.49 -25.95,-7.83 -38.96,-9.65 -6.98,-0.95 -14,-1.45 -21.04,-1.45 -6.03,0 -12.07,0.38 -18.07,1.13 -13.02,1.75 -25.98,5.35 -38.8,11.11 -12.95,5.73 -25.5,13.5 -37.67,23.69 -2.37,2.02 -4.71,4.25 -7.04,6.5 10.1,-1.03 21.29,-1.85 33.45,-2.14 3.46,-0.1 6.98,-0.14 10.6,-0.14 14.28,0 29.56,0.85 45.37,3.06 19.68,2.72 40.06,7.47 60.5,14.98 10.24,3.81 20.5,8.31 30.79,13.67 10.29,5.27 20.63,11.31 30.95,18.25 10.35,6.84 20.74,14.56 31.05,23.2 15.46,12.99 30.67,28.28 45.05,46.25 7.16,9.14 14.03,18.96 20.58,29.59 6.56,10.63 12.86,21.95 18.93,33.99 0.28,0.65 6.76,17.98 13.72,47.57 2.33,9.86 4.68,21.1 6.84,33.49 2.12,12.4 3.94,25.96 5.24,40.44 1.31,14.49 2.1,29.88 2.12,46.07 -0.64,16.44 -2.39,33.32 -5.38,50.71 -3.47,17.29 -7.78,34.99 -12.97,53.16 -1.52,5.6 -3.19,11.39 -4.81,17.11 5.08,-0.7 10.34,-1.29 15.87,-1.64 3.67,-0.22 7.43,-0.34 11.28,-0.34 9.99,0 20.54,0.85 31.52,2.94 15.16,2.89 30.77,8.19 46.21,16.52 24.43,14.64 39.89,31.73 39.79,57.41 0,5.67 -0.73,11.69 -2.16,18.12 -3.35,11.38 -10.1,21.98 -19.56,31.63 z m -196.33,-331.22 c -3.33,-25.25 -10.72,-50.87 -23.69,-76.11 -5.54,-10.83 -12.09,-21.58 -19.79,-32.2 -7.68,-10.58 -16.59,-20.99 -26.78,-31.17 -10.9,-10.86 -23.17,-21.45 -36.98,-31.8 0.17,0.1 -12.38,-8.43 -33.2,-15.9 -10.37,-3.63 -22.87,-6.89 -36.87,-8.6 -6.27,-0.75 -12.86,-1.18 -19.66,-1.18 -8.4,0 -17.11,0.65 -26.09,2.16 -16.28,2.71 -33.32,8.17 -50.51,17.64 -2.52,1.4 -5.05,3.08 -7.58,4.67 4.57,6.55 9.22,13.31 13.99,20.53 2.81,4.16 5.63,8.5 8.46,12.92 5.39,-2.7 10.75,-5.3 15.94,-7.66 8.87,-4.01 17.46,-7.35 25.96,-9.67 8.24,-2.4 16.67,-3.52 25.01,-3.45 8.44,0.23 16.68,1.36 24.46,3.29 7.7,1.79 15.1,4.43 22.39,8.02 10.37,5.11 19.87,12 28.28,20.37 7.3,7.03 13.75,15.07 19.12,23.75 4.44,7.22 8.03,14.78 10.78,22.61 3.34,9.63 5.57,19.93 6.91,30.94 1.32,11.01 1.91,22.97 1.84,35.83 -0.08,12.77 -0.97,26.01 -3.17,38.73 -2.26,12.65 -6.13,24.64 -11.8,35.83 -5,8.88 -10.84,17.14 -17.29,25.09 -6.44,7.95 -13.44,15.77 -20.82,23.64 -0.79,0.84 -1.63,1.62 -2.43,2.44 9.33,12.85 20.67,27.62 33.26,42.07 15.59,17.92 33.14,35.17 51.74,47.95 2.14,-3.33 4.33,-6.84 6.59,-10.58 8.4,-13.93 17.26,-30.85 24.85,-50.3 3.56,-9.86 6.82,-20.53 9.57,-31.64 2.77,-11.11 5.09,-22.62 6.76,-34.45 1.69,-11.82 2.73,-23.95 2.9,-36.27 0,-1.21 0.03,-2.49 0.03,-3.77 -0.03,-11.1 -0.69,-22.37 -2.18,-33.73"
         style="fill:#100f0d;fill-opacity:1;fill-rule:nonzero;stroke:none"
         id="path12" />
    </g>
  </g>
</svg>
